<?xml version="1.0" encoding="UTF-8" standalone="no"?>
<!DOCTYPE svg PUBLIC "-//W3C//DTD SVG 1.1//EN" "http://www.w3.org/Graphics/SVG/1.1/DTD/svg11.dtd">
<svg width="100%" height="100%" viewBox="0 0 693 693" version="1.1" xmlns="http://www.w3.org/2000/svg" xmlns:xlink="http://www.w3.org/1999/xlink" xml:space="preserve" xmlns:serif="http://www.serif.com/" style="fill-rule:evenodd;clip-rule:evenodd;stroke-linejoin:round;stroke-miterlimit:2;">
    <g transform="matrix(1,0,0,1,-6168.3,-5238.82)">
        <g transform="matrix(1.24125,0,0,0.994918,766.326,5085.24)">
            <g transform="matrix(1.61977,0,0,1.28306,-2908.25,-95.3619)">
                <g transform="matrix(0.638168,0,0,1.00511,1010.2,-1273.83)">
                    <path d="M5980.73,1523.35C5980.73,1488.91 5952.82,1461 5918.38,1461L5503.08,1461C5468.65,1461 5440.73,1488.91 5440.73,1523.35L5440.73,1938.65C5440.73,1973.09 5468.65,2001 5503.08,2001L5918.38,2001C5952.82,2001 5980.73,1973.09 5980.73,1938.65L5980.73,1523.35Z" style="fill:url(#_Linear1);"/>
                </g>
                <g transform="matrix(1.84072,0,0,4.94447,3397.37,-3634.77)">
                    <g>
                        <g transform="matrix(0.226847,0.133008,-0.18635,0.109263,904.496,363.604)">
                            <path d="M1243.28,2581.15C1243.28,2540.78 1216.39,2508.05 1183.22,2508.05L1183.22,2508.05C1150.05,2508.05 1123.16,2540.78 1123.16,2581.15L1123.16,2625.02C1123.16,2648.29 1130.76,2670.6 1144.27,2687.05C1157.79,2703.51 1176.12,2712.75 1195.23,2712.75L1243.28,2712.75L1243.28,2581.15Z" style="fill:white;"/>
                        </g>
                        <g transform="matrix(0.113423,0.0665039,-0.0665536,0.0390226,701.459,648.017)">
                            <path d="M1243.28,2508.05C1243.28,2508.05 1213.25,2508.05 1183.22,2508.05C1167.29,2508.05 1152.02,2518.83 1140.75,2538.03C1129.49,2557.22 1123.16,2583.25 1123.16,2610.4L1123.16,2610.41C1123.16,2666.93 1150.05,2712.75 1183.21,2712.75L1183.23,2712.75C1216.39,2712.75 1243.28,2666.93 1243.28,2610.41C1243.28,2559.23 1243.28,2508.05 1243.28,2508.05Z" style="fill:white;"/>
                        </g>
                        <g transform="matrix(0.226847,0.133008,-0.292836,0.171699,1179.74,240.562)">
                            <path d="M1243.28,2563.88C1243.28,2549.07 1235.68,2534.87 1222.17,2524.4C1208.65,2513.93 1190.32,2508.05 1171.21,2508.05L1123.16,2508.05L1123.16,2666.22C1123.16,2678.56 1129.49,2690.4 1140.75,2699.12C1152.02,2707.85 1167.29,2712.75 1183.22,2712.75L1183.22,2712.75C1216.39,2712.75 1243.28,2691.92 1243.28,2666.23C1243.28,2635.83 1243.28,2595.98 1243.28,2563.88Z" style="fill:white;"/>
                        </g>
                    </g>
                </g>
            </g>
        </g>
    </g>
    <defs>
        <linearGradient id="_Linear1" x1="0" y1="0" x2="1" y2="0" gradientUnits="userSpaceOnUse" gradientTransform="matrix(-386.336,-375.609,375.609,-386.336,5926.06,1953.92)"><stop offset="0" style="stop-color:rgb(0,135,122);stop-opacity:1"/><stop offset="0.34" style="stop-color:rgb(24,168,131);stop-opacity:1"/><stop offset="1" style="stop-color:rgb(56,198,130);stop-opacity:1"/></linearGradient>
    </defs>
</svg>
